<svg xmlns="http://www.w3.org/2000/svg" width="40" height="20" viewBox="0 0 40 20">
  <path id="_-_" data-name="-&gt;" d="M-4781.414-38.585a2,2,0,0,1,0-2.828l4.585-4.586H-4808a2,2,0,0,1-2-2,2,2,0,0,1,2-2h31.171l-4.585-4.586a2,2,0,0,1,0-2.828,2,2,0,0,1,2.827,0l8,8a2,2,0,0,1,.57,1.667l0,.022c0,.008,0,.015,0,.023s0,.022,0,.032l0,.012c0,.013,0,.026-.007.038v0l-.009.044h0c-.014.062-.03.124-.049.184v0l-.014.041,0,.006c0,.012-.009.025-.013.037l0,.01-.013.034-.006.015-.011.026-.011.026-.007.017-.016.033,0,.009-.018.037,0,.006-.021.04h0l-.022.04v0l-.023.038,0,0-.022.035-.005.008-.02.03-.01.015-.016.023-.019.027-.008.01-.024.032,0,0a2.009,2.009,0,0,1-.188.21l-7.98,7.98A1.994,1.994,0,0,1-4780-38,1.993,1.993,0,0,1-4781.414-38.585Z" transform="translate(4810 58)" fill="#fff"/>
</svg>
