<svg xmlns:xlink="http://www.w3.org/1999/xlink" id="그룹_45" data-name="그룹 45" xmlns="http://www.w3.org/2000/svg" width="21.96" height="22.107" viewBox="0 0 21.96 22.107">
            <path id="패스_116" data-name="패스 116" d="M2.436,6.1A1.427,1.427,0,0,1,.418,4.087L4.086.418A1.427,1.427,0,1,1,6.1,2.437Z" transform="translate(15.588 4.612) rotate(135)" fill="#FFCC00"></path>
            <path id="패스_117" data-name="패스 117" d="M7.764,0A7.764,7.764,0,0,0,0,7.764c0,.191.01.381.024.569v.006a1.3,1.3,0,1,0,2.6,0,1.244,1.244,0,0,0-.011-.162c-.011-.136-.018-.274-.018-.413a5.175,5.175,0,1,1,4.634,5.145v0l-.037,0A1.295,1.295,0,0,0,7.113,15.5h0c.215.018.432.029.652.029A7.764,7.764,0,1,0,7.764,0" transform="translate(21.96 11.127) rotate(135)" fill="#FFCC00"></path>
          </svg>