<svg xmlns="http://www.w3.org/2000/svg" xmlns:xlink="http://www.w3.org/1999/xlink" width="115" height="52" viewBox="0 0 115 52">
  <defs>
    <clipPath id="clip-path">
      <rect id="사각형_4888" data-name="사각형 4888" width="115" height="52" fill="none"/>
    </clipPath>
  </defs>
  <g id="그룹_13216" data-name="그룹 13216" clip-path="url(#clip-path)">
    <path id="패스_43597" data-name="패스 43597" d="M16.327,15.878a7.039,7.039,0,0,0-2.043,4.968l-.017.636h3.013l.043-.572a4.567,4.567,0,0,1,1.187-2.978,3.459,3.459,0,0,1,2.573-1.016,3.4,3.4,0,0,1,2.476.973,3.048,3.048,0,0,1,1,2.288,4.027,4.027,0,0,1-.577,2.078,22.732,22.732,0,0,1-2.77,3.367l-8.175,8.805H27.847V31.383H19.959c1.221-1.313,3.731-4.018,3.731-4.018a21.989,21.989,0,0,0,3.064-3.911,6.8,6.8,0,0,0,.841-3.294,6.225,6.225,0,0,0-6.426-6.24,6.634,6.634,0,0,0-4.843,1.957" transform="translate(14.932 15.99)" fill="#009844"/>
    <path id="패스_43598" data-name="패스 43598" d="M0,4.94l4.877.011V25.458a61.431,61.431,0,0,0,.2,6.616,11,11,0,0,0,1.71,4.884,10.082,10.082,0,0,0,4.124,3.29,12.93,12.93,0,0,0,5.6,1.326,11.051,11.051,0,0,0,4.695-1.04,10.441,10.441,0,0,0,3.755-2.888,11.771,11.771,0,0,0,2.214-4.465,37.075,37.075,0,0,0,.5-7.722V5.252l4.877-.011V25.486a36.63,36.63,0,0,1-1.285,10.707,14.562,14.562,0,0,1-5.15,7.108,14.7,14.7,0,0,1-9.344,3.025A17.837,17.837,0,0,1,6.585,43.468,13.751,13.751,0,0,1,.9,35.9Q0,33.017,0,25.486Z" transform="translate(0 5.674)" fill="#009844"/>
    <path id="패스_43599" data-name="패스 43599" d="M60.59,11.491A1.394,1.394,0,1,1,61.856,9.98a1.393,1.393,0,0,1-1.266,1.511M54.4,5.537A2.747,2.747,0,1,1,52.585,2.1,2.746,2.746,0,0,1,54.4,5.537M42.553,15.73a3.447,3.447,0,1,1-2.283-4.312,3.443,3.443,0,0,1,2.283,4.312M60.24,7.49a2.573,2.573,0,0,0-1.483.638l-2.51-1.891.045-.12a4.723,4.723,0,1,0-8.842.494l-4.289,3.651A5.909,5.909,0,0,0,33.6,12.975a5.923,5.923,0,1,0,10.7-1.369l4.148-3.532a4.708,4.708,0,0,0,7.087-.481l2.42,1.824a2.588,2.588,0,0,0-.09.913A2.618,2.618,0,1,0,60.24,7.49" transform="translate(38.191 0)" fill="#8ec21f"/>
    <path id="패스_43600" data-name="패스 43600" d="M25.735,25.716V41.382h5.042a18.041,18.041,0,0,0,6.54-.875,7.45,7.45,0,0,0,3.341-2.737,7.171,7.171,0,0,0-.506-8.777,9.06,9.06,0,0,0-4.858-2.778,35.688,35.688,0,0,0-7.255-.5Zm0-17.08V21.69H28.07a18.256,18.256,0,0,0,6.253-.786,6.744,6.744,0,0,0,3.169-2.5,6.537,6.537,0,0,0,1.169-3.784A5.349,5.349,0,0,0,36.7,10.231q-1.96-1.592-6.24-1.594ZM21.714,4.612h8.021a19.014,19.014,0,0,1,7.437,1.15A9.129,9.129,0,0,1,41.28,9.3a9.688,9.688,0,0,1,1.506,5.294,9.46,9.46,0,0,1-5.128,8.567A14.806,14.806,0,0,1,42.48,25.7a10.171,10.171,0,0,1,2.626,3.524,10.662,10.662,0,0,1,.94,4.478,11.016,11.016,0,0,1-3.579,8.309q-3.576,3.4-9.6,3.4H21.714Z" transform="translate(24.877 5.297)" fill="#8ec21f"/>
    <rect id="사각형_4886" data-name="사각형 4886" width="4.019" height="27.795" transform="translate(75.331 22.907)" fill="#8ec21f"/>
    <path id="패스_43601" data-name="패스 43601" d="M54.6,12.637a12.312,12.312,0,0,0-10.54,6.141,12.423,12.423,0,0,0-1.609,6.276A12.107,12.107,0,0,0,54.6,37.237a12.379,12.379,0,0,0,6.212-1.622,11.636,11.636,0,0,0,4.452-4.439,12.45,12.45,0,0,0,1.6-6.257,12.147,12.147,0,0,0-1.6-6.19,11.924,11.924,0,0,0-4.5-4.428A12.221,12.221,0,0,0,54.6,12.637m-.135-3.324a15.446,15.446,0,0,1,11.318,4.51,15.013,15.013,0,0,1,4.557,11.1A15.1,15.1,0,0,1,65.8,36.01a15.077,15.077,0,0,1-11.087,4.551,15.234,15.234,0,0,1-11.175-4.529,14.886,14.886,0,0,1-4.555-10.963,15.85,15.85,0,0,1,2.075-7.95A15.332,15.332,0,0,1,54.467,9.313" transform="translate(44.658 10.697)" fill="#8ec21f"/>
    <path id="패스_43602" data-name="패스 43602" d="M16.327,15.878a7.039,7.039,0,0,0-2.043,4.968l-.017.636h3.013l.043-.572a4.567,4.567,0,0,1,1.187-2.978,3.459,3.459,0,0,1,2.573-1.016,3.4,3.4,0,0,1,2.476.973,3.048,3.048,0,0,1,1,2.288,4.027,4.027,0,0,1-.577,2.078,22.732,22.732,0,0,1-2.77,3.367l-8.175,8.805H27.847V31.383H19.959c1.221-1.313,3.731-4.018,3.731-4.018a21.989,21.989,0,0,0,3.064-3.911,6.8,6.8,0,0,0,.841-3.294,6.225,6.225,0,0,0-6.426-6.24,6.634,6.634,0,0,0-4.843,1.957" transform="translate(14.932 15.99)" fill="#009844"/>
    <path id="패스_43603" data-name="패스 43603" d="M0,4.94l4.877.011V25.458a61.431,61.431,0,0,0,.2,6.616,11,11,0,0,0,1.71,4.884,10.082,10.082,0,0,0,4.124,3.29,12.93,12.93,0,0,0,5.6,1.326,11.051,11.051,0,0,0,4.695-1.04,10.441,10.441,0,0,0,3.755-2.888,11.771,11.771,0,0,0,2.214-4.465,37.075,37.075,0,0,0,.5-7.722V5.252l4.877-.011V25.486a36.63,36.63,0,0,1-1.285,10.707,14.562,14.562,0,0,1-5.15,7.108,14.7,14.7,0,0,1-9.344,3.025A17.837,17.837,0,0,1,6.585,43.468,13.751,13.751,0,0,1,.9,35.9Q0,33.017,0,25.486Z" transform="translate(0 5.674)" fill="#009844"/>
    <path id="패스_43604" data-name="패스 43604" d="M60.59,11.491A1.394,1.394,0,1,1,61.856,9.98a1.393,1.393,0,0,1-1.266,1.511M54.4,5.537A2.747,2.747,0,1,1,52.585,2.1,2.746,2.746,0,0,1,54.4,5.537M42.553,15.73a3.447,3.447,0,1,1-2.283-4.312,3.443,3.443,0,0,1,2.283,4.312M60.24,7.49a2.573,2.573,0,0,0-1.483.638l-2.51-1.891.045-.12a4.723,4.723,0,1,0-8.842.494l-4.289,3.651A5.909,5.909,0,0,0,33.6,12.975a5.923,5.923,0,1,0,10.7-1.369l4.148-3.532a4.708,4.708,0,0,0,7.087-.481l2.42,1.824a2.588,2.588,0,0,0-.09.913A2.618,2.618,0,1,0,60.24,7.49" transform="translate(38.191 0)" fill="#8ec21f"/>
    <path id="패스_43605" data-name="패스 43605" d="M25.735,25.716V41.382h5.042a18.041,18.041,0,0,0,6.54-.875,7.45,7.45,0,0,0,3.341-2.737,7.171,7.171,0,0,0-.506-8.777,9.06,9.06,0,0,0-4.858-2.778,35.688,35.688,0,0,0-7.255-.5Zm0-17.08V21.69H28.07a18.256,18.256,0,0,0,6.253-.786,6.744,6.744,0,0,0,3.169-2.5,6.537,6.537,0,0,0,1.169-3.784A5.349,5.349,0,0,0,36.7,10.231q-1.96-1.592-6.24-1.594ZM21.714,4.612h8.021a19.014,19.014,0,0,1,7.437,1.15A9.129,9.129,0,0,1,41.28,9.3a9.688,9.688,0,0,1,1.506,5.294,9.46,9.46,0,0,1-5.128,8.567A14.806,14.806,0,0,1,42.48,25.7a10.171,10.171,0,0,1,2.626,3.524,10.662,10.662,0,0,1,.94,4.478,11.016,11.016,0,0,1-3.579,8.309q-3.576,3.4-9.6,3.4H21.714Z" transform="translate(24.877 5.297)" fill="#8ec21f"/>
    <rect id="사각형_4887" data-name="사각형 4887" width="4.019" height="27.795" transform="translate(75.331 22.907)" fill="#8ec21f"/>
    <path id="패스_43606" data-name="패스 43606" d="M54.6,12.637a12.312,12.312,0,0,0-10.54,6.141,12.423,12.423,0,0,0-1.609,6.276A12.107,12.107,0,0,0,54.6,37.237a12.379,12.379,0,0,0,6.212-1.622,11.636,11.636,0,0,0,4.452-4.439,12.45,12.45,0,0,0,1.6-6.257,12.147,12.147,0,0,0-1.6-6.19,11.924,11.924,0,0,0-4.5-4.428A12.221,12.221,0,0,0,54.6,12.637m-.135-3.324a15.446,15.446,0,0,1,11.318,4.51,15.013,15.013,0,0,1,4.557,11.1A15.1,15.1,0,0,1,65.8,36.01a15.077,15.077,0,0,1-11.087,4.551,15.234,15.234,0,0,1-11.175-4.529,14.886,14.886,0,0,1-4.555-10.963,15.85,15.85,0,0,1,2.075-7.95A15.332,15.332,0,0,1,54.467,9.313" transform="translate(44.658 10.697)" fill="#8ec21f"/>
  </g>
</svg>
