<svg xmlns="http://www.w3.org/2000/svg" width="15" height="30" viewBox="0 0 15 30">
  <path id="_-_" data-name="-&gt;" d="M-4788.56-43.439a1.5,1.5,0,0,1,0-2.121l3.438-3.439H-4808.5a1.5,1.5,0,0,1-1.5-1.5,1.5,1.5,0,0,1,1.5-1.5h23.378l-3.438-3.439a1.5,1.5,0,0,1,0-2.121,1.5,1.5,0,0,1,2.121,0l6,6c.024.024.047.049.07.075l0,.005.017.02.007.008.016.019.007.01.015.019.008.01.014.019.008.011.012.018.009.013.011.016.01.016.009.014.011.019.007.011.013.023,0,.007.015.027v0a1.493,1.493,0,0,1,.171.7,1.493,1.493,0,0,1-.171.7v0l-.015.027,0,.008-.013.023-.006.011-.011.019-.009.014-.01.016-.011.016-.009.013-.012.018-.008.012-.014.018-.008.011-.014.019-.008.01-.015.019-.007.008-.017.021-.005.006c-.022.025-.045.05-.069.075l-6,6A1.5,1.5,0,0,1-4787.5-43,1.491,1.491,0,0,1-4788.56-43.439Z" transform="translate(-43 4810) rotate(90)" fill="#fff"/>
</svg>
