<svg xmlns="http://www.w3.org/2000/svg" width="20" height="20" viewBox="0 0 20 20">
  <g id="Icon_feather-search" data-name="Icon feather-search" transform="translate(1 1)">
    <path id="패스_45242" data-name="패스 45242" d="M11,2a9,9,0,1,1-9,9A9.01,9.01,0,0,1,11,2Zm0,16a7,7,0,1,0-7-7A7.008,7.008,0,0,0,11,18Z" transform="translate(-3 -3)"/>
    <path id="패스_45243" data-name="패스 45243" d="M21,22a1,1,0,0,1-.707-.293l-4.35-4.35a1,1,0,1,1,1.414-1.414l4.35,4.35A1,1,0,0,1,21,22Z" transform="translate(-3 -3)"/>
  </g>
</svg>
