<svg xmlns="http://www.w3.org/2000/svg" width="12.297" height="18.437" viewBox="0 0 12.297 18.437">
  <path id="Icon_ionic-ios-arrow-round-up" data-name="Icon ionic-ios-arrow-round-up" d="M23.309,14.561a.837.837,0,0,1-1.178.006l-3.9-3.887V25.493a.833.833,0,0,1-1.665,0V10.681l-3.9,3.894a.843.843,0,0,1-1.178-.006.829.829,0,0,1,.006-1.172l5.315-5.277h0a.935.935,0,0,1,.263-.173.8.8,0,0,1,.32-.064.835.835,0,0,1,.583.237L23.289,13.4A.816.816,0,0,1,23.309,14.561Z" transform="translate(-11.247 -7.882)" fill="#fff"/>
</svg>
