<svg xmlns="http://www.w3.org/2000/svg" xmlns:xlink="http://www.w3.org/1999/xlink" width="145.986" height="34.464" viewBox="0 0 145.986 34.464">
      <defs>
        <clipPath id="clip-path">
          <rect id="사각형_2" data-name="사각형 2" width="99.939" height="34.464" fill="#323c51"></rect>
        </clipPath>
        <clipPath id="clip-path-2">
          <rect id="사각형_4" data-name="사각형 4" width="39.119" height="34.464" fill="#fff"></rect>
        </clipPath>
      </defs>
      <g id="f_logo" transform="translate(-82.145 -50.118)">
        <g id="그룹_2" data-name="그룹 2" transform="translate(82.145 50.118)">
          <g id="그룹_1" data-name="그룹 1" transform="translate(0 0)" clip-path="url(#clip-path)">
            <path id="패스_1" data-name="패스 1" d="M65.6,9.664a5.337,5.337,0,1,1-5.337-5.337A5.338,5.338,0,0,1,65.6,9.664" transform="translate(4.479 0.353)" fill="#142345"></path>
            <rect id="사각형_1" data-name="사각형 1" width="7.966" height="29.298" transform="translate(0 5.161)" fill="#142345"></rect>
            <path id="패스_2" data-name="패스 2" d="M47.481,25.351a9.089,9.089,0,0,0,5.252-8.213V13.745a9.044,9.044,0,0,0-8.3-8.978H27.474V34.074h7.44V26.2H38.73l5.609,7.876h8.928Zm-1.9-9.447a3.4,3.4,0,0,1-3.4,3.4H34.79V11.284h7.39a3.4,3.4,0,0,1,3.4,3.4Z" transform="translate(2.241 0.389)" fill="#142345"></path>
            <path id="패스_3" data-name="패스 3" d="M75.432,20.526a2.016,2.016,0,0,1-2.851-2.851l5.182-5.183a2.016,2.016,0,1,1,2.851,2.852Z" transform="translate(5.871 0.971)" fill="#FFCC00"></path>
            <path id="패스_4" data-name="패스 4" d="M83.089,0A10.968,10.968,0,0,0,72.121,10.968c0,.27.014.538.034.8v.009a1.834,1.834,0,1,0,3.669,0,1.757,1.757,0,0,0-.016-.228c-.015-.193-.026-.387-.026-.584a7.311,7.311,0,1,1,6.547,7.268v.006c-.017,0-.035,0-.052,0a1.829,1.829,0,0,0-.107,3.655h0c.3.025.61.041.92.041A10.968,10.968,0,1,0,83.089,0" transform="translate(5.882 0)" fill="#FFCC00"></path>
            <path id="패스_5" data-name="패스 5" d="M63.923,17.479H56.275V28.754h0a4.342,4.342,0,0,0,4.34,4.276l.047,0h3.259Z" transform="translate(4.59 1.426)" fill="#142345"></path>
            <path id="패스_6" data-name="패스 6" d="M26.348,34.07,15.7,19.207,26.239,4.771H17.66L7.365,19.458,17.422,34.07Z" transform="translate(0.601 0.39)" fill="#142345"></path>
          </g>
        </g>
        <g id="그룹_4" data-name="그룹 4" transform="translate(189.012 50.118)">
          <g id="그룹_3" data-name="그룹 3" clip-path="url(#clip-path-2)">
          </g>
        </g>
      </g>
    </svg>